<?xml version="1.0" encoding="utf-8"?>
<!-- Generator: Adobe Illustrator 16.0.0, SVG Export Plug-In . SVG Version: 6.00 Build 0)  -->
<!DOCTYPE svg PUBLIC "-//W3C//DTD SVG 1.1//EN" "http://www.w3.org/Graphics/SVG/1.1/DTD/svg11.dtd">
<svg version="1.1" id="Layer_1" xmlns="http://www.w3.org/2000/svg" xmlns:xlink="http://www.w3.org/1999/xlink" x="0px" y="0px"
	 width="612px" height="100px" viewBox="0 0 612 100" enable-background="new 0 0 612 100" xml:space="preserve">
<path fill="#FFFFFF" d="M63.959,12.663v15.76H26.691v17.421h35.479v15.713H26.691v31.542H8.748V12.663H63.959z"/>
<path fill="#FFFFFF" d="M138.055,62.137c0.192,8.517-3.175,16.729-9.291,22.658c-6.194,6.14-13.999,9.207-23.413,9.198
	c-9.415-0.008-17.227-3.073-23.437-9.198c-6.116-5.931-9.483-14.142-9.291-22.658c-0.184-8.532,3.181-16.758,9.291-22.716
	c6.194-6.194,13.998-9.291,23.413-9.291c9.416,0,17.22,3.097,23.414,9.291C134.86,45.375,138.233,53.602,138.055,62.137z
	 M89.975,62.137c-0.198,4.526,1.344,8.955,4.309,12.381c5.739,6.094,15.331,6.381,21.424,0.642c0.22-0.207,0.434-0.422,0.641-0.642
	c2.961-3.422,4.504-7.847,4.309-12.368c0.188-4.538-1.352-8.979-4.309-12.427c-5.644-6.094-15.16-6.457-21.253-0.813
	c-0.281,0.261-0.552,0.532-0.812,0.813c-2.958,3.444-4.501,7.879-4.32,12.415H89.975L89.975,62.137z"/>
<path fill="#FFFFFF" d="M212.707,62.137c0.192,8.517-3.175,16.729-9.291,22.658c-6.194,6.14-13.998,9.207-23.413,9.198
	c-9.415-0.008-17.219-3.073-23.413-9.198c-6.116-5.931-9.483-14.142-9.291-22.658c-0.184-8.532,3.181-16.758,9.291-22.716
	c6.194-6.194,13.998-9.291,23.413-9.291s17.22,3.097,23.413,9.291C209.527,45.378,212.892,53.604,212.707,62.137z M164.627,62.137
	c-0.198,4.526,1.343,8.955,4.308,12.381c5.739,6.094,15.331,6.381,21.424,0.642c0.22-0.207,0.434-0.422,0.642-0.642
	c2.961-3.422,4.502-7.847,4.309-12.368c0.187-4.538-1.353-8.979-4.309-12.427c-5.646-6.094-15.161-6.457-21.254-0.813
	c-0.281,0.261-0.552,0.532-0.813,0.813C165.982,53.167,164.442,57.603,164.627,62.137z"/>
<path fill="#FFFFFF" d="M250.313,94.006c-7.324,0-13.862-3.098-19.615-9.292c-5.753-6.193-8.628-13.901-8.628-23.122
	c0-9.206,2.799-16.739,8.396-22.601c5.598-5.861,12.155-8.795,19.673-8.803c7.01-0.222,13.755,2.685,18.407,7.932V7.728h17.259
	v85.371h-17.305V84.97C263.669,90.993,257.606,94.006,250.313,94.006z M239.396,62.253c-0.18,4.52,1.431,8.926,4.482,12.264
	c2.636,3.021,6.444,4.76,10.453,4.772c3.945,0.029,7.691-1.724,10.196-4.772c2.892-3.434,4.392-7.825,4.204-12.311
	c0.159-4.552-1.334-9.007-4.204-12.543c-2.471-3.177-6.276-5.027-10.301-5.005c-4.074,0.01-7.92,1.875-10.453,5.063
	C240.815,53.214,239.255,57.678,239.396,62.253z"/>
<path fill="#FFFFFF" d="M340.736,77.2c8.465,0.174,16.503-3.711,21.625-10.452l11.51,11.846
	c-9.129,10.274-19.883,15.412-32.264,15.412s-22.58-3.91-30.603-11.73c-8.014-7.819-12.021-17.695-12.021-29.626
	c0-11.931,4.085-21.884,12.252-29.858c7.951-7.889,18.766-12.207,29.963-11.963c13.164,0,24.207,5.033,33.134,15.098l-11.16,12.589
	c-5.676-7.053-12.732-10.58-21.172-10.58c-6.433-0.134-12.663,2.25-17.362,6.643c-4.792,4.414-7.188,10.355-7.188,17.827
	s2.26,13.472,6.783,18.002C328.556,74.86,334.531,77.32,340.736,77.2z"/>
<path fill="#FFFFFF" d="M387.737,23.313c-1.93-1.888-2.994-4.489-2.938-7.189c-0.055-2.699,1.009-5.3,2.938-7.189
	c3.995-3.91,10.383-3.91,14.378,0c1.93,1.889,2.994,4.49,2.938,7.189c0.055,2.7-1.009,5.301-2.938,7.189
	C398.12,27.222,391.732,27.222,387.737,23.313z M403.544,93.099h-17.246V31.188h17.257L403.544,93.099z"/>
<path fill="#FFFFFF" d="M440.475,43.613v27.722c-0.121,2.024,0.536,4.018,1.835,5.575c1.091,1.278,2.688,2.012,4.368,2.01
	c3.261-0.038,6.297-1.669,8.129-4.366l6.445,12.077c-5.365,4.908-11.021,7.363-16.968,7.363c-5.613,0.14-11.05-1.972-15.097-5.866
	c-4.104-3.908-6.155-9.24-6.155-15.99V43.613h-7.247V31.188h7.247V12.664h17.42v18.524h14.958v12.426H440.475L440.475,43.613z"/>
<path fill="#FFFFFF" d="M471.937,23.313c-1.93-1.888-2.994-4.489-2.938-7.189c-0.055-2.699,1.009-5.3,2.938-7.189
	c3.995-3.91,10.383-3.91,14.378,0c1.93,1.889,2.994,4.49,2.938,7.189c0.055,2.7-1.009,5.301-2.938,7.189
	C482.319,27.222,475.932,27.222,471.937,23.313z M487.754,93.099h-17.257V31.188h17.257V93.099z"/>
</svg>
